<svg width="96" height="171" fill="none" xmlns="http://www.w3.org/2000/svg"><path d="M37.781 27.186c-1.8 1.403-2.325 5.712-1.012 8.383.619 1.236 1.237 1.67 2.85 1.97 2.062.402 3.637 2.272 4.65 5.612l.637 2.104.113 13.693c.112 15.163.075 14.83 1.5 19.538.581 1.97 2.269 5.41 3.169 6.48l.45.534-.45.534c-.938 1.102-2.55 4.409-3.15 6.413-1.444 4.81-1.407 4.409-1.52 19.605l-.112 13.693-.637 2.104c-1.05 3.44-2.55 5.177-4.988 5.711-2.25.501-3.187 2.071-3.187 5.377 0 4.409 1.912 6.146 5.343 4.877 3.45-1.269 6.638-5.645 8.213-11.222 1.256-4.476 1.35-5.745 1.35-19.906v-12.357l.487-1.737c.882-3.14 3.526-6.58 6.113-7.882 3.188-1.636 3.188-8.784-.019-10.42-2.569-1.303-5.212-4.743-6.094-7.882L51 70.67V58.314c0-14.161-.094-15.43-1.35-19.906-1.106-3.974-3.038-7.38-5.212-9.318-2.438-2.104-5.326-2.939-6.657-1.904z" fill="#000"/></svg>