<svg width="39" height="39" fill="none" xmlns="http://www.w3.org/2000/svg"><g clip-path="url(#clip0_1923_186)" fill="#000"><path d="M8.379.114C6.193.442 4.464 1.31 2.887 2.887 1.264 4.509.38 6.322.084 8.6c-.114.891-.114 20.909 0 21.8.297 2.278 1.18 4.09 2.803 5.713 1.622 1.623 3.435 2.506 5.713 2.803.891.115 20.909.115 21.8 0 2.278-.297 4.09-1.18 5.713-2.803 1.623-1.622 2.506-3.435 2.803-5.713.115-.891.115-20.909 0-21.8-.297-2.278-1.18-4.09-2.803-5.713C34.491 1.264 32.678.38 30.4.084c-.975-.13-21.16-.1-22.021.03zm22.829 3.443c.86.297 1.05.396 1.76.884 1.126.777 2.018 1.988 2.467 3.351l.252.777V19.5c0 10.458-.008 10.953-.145 11.388-.51 1.653-1.394 2.879-2.697 3.763-.563.38-1.05.601-1.843.853l-.571.183H8.57l-.778-.252c-2.132-.7-3.625-2.262-4.334-4.547-.137-.435-.145-.93-.145-11.388s.008-10.954.145-11.388c.541-1.736 1.486-3 2.895-3.884.594-.374 1.615-.77 2.247-.876.19-.03 5.202-.054 11.129-.046l10.778.007.7.244z"/><path d="M29.555 6.581c-.541.122-.853.29-1.22.663-.494.51-.646.914-.646 1.706 0 .594.03.74.205 1.067.42.792 1.128 1.256 2.011 1.317.647.039.99-.053 1.531-.419 1.516-1.02 1.34-3.344-.305-4.128-.563-.267-1.013-.328-1.576-.206zM18.25 9.834c-3.678.51-6.817 3.07-7.96 6.512-.388 1.174-.494 1.852-.494 3.154 0 1.302.106 1.98.495 3.161.921 2.758 3.298 5.127 6.07 6.056 1.159.38 1.844.487 3.139.487 1.295 0 1.98-.106 3.138-.487 2.773-.93 5.15-3.298 6.071-6.056.389-1.18.495-1.859.495-3.161 0-1.706-.327-3.1-1.066-4.494-1.41-2.643-3.832-4.464-6.772-5.066-.731-.152-2.392-.213-3.115-.106zm3.208 3.489c.815.266 1.036.373 1.66.792 1.28.86 2.14 2.056 2.636 3.633.152.495.182.731.182 1.752 0 1.257-.09 1.721-.54 2.72-.564 1.279-1.897 2.612-3.184 3.183-.99.442-1.455.534-2.712.534-1.257 0-1.721-.092-2.712-.534-1.287-.571-2.62-1.904-3.184-3.184-.45-.998-.54-1.462-.54-2.719 0-1.02.03-1.257.182-1.752.26-.823.488-1.303.922-1.935.86-1.249 2.064-2.11 3.542-2.544.754-.22.868-.236 2.018-.206.907.023 1.113.054 1.73.26z"/></g><defs><clipPath id="clip0_1923_186"><path fill="#fff" d="M0 0h39v39H0z"/></clipPath></defs></svg>