<svg width="62" height="61" fill="none" xmlns="http://www.w3.org/2000/svg"><path d="M16.868 9.505c-1.223.52-3.669 3.716-4.88 6.366-1.26 2.744-1.816 5.348-1.816 8.427.012 5.07 1.78 9.688 5.195 13.497l.714.798-.181.706c-.218.892-.642 3.149-.642 3.45 0 .127.157.382.351.567.678.648 1.598.3 1.768-.66.63-3.658 1.526-6.424 3.015-9.306 3.863-7.431 10.644-13.034 18.842-15.569 2.773-.856 5.68-1.342 8.114-1.377 1.501-.012 1.513-.012 1.647.277.254.498.557 3.531.617 6.216.11 4.248-.242 7.582-1.066 9.932-1.114 3.183-2.736 5.764-5.134 8.149-3.257 3.23-7.12 5.255-11.867 6.227-1.441.29-1.804.313-4.238.313-2.071.011-2.93-.035-3.863-.209-1.853-.324-1.829-.254-.473-1.169 5.68-3.796 10.705-8.89 14.277-14.48.436-.672.836-1.355.897-1.505.23-.579-.364-1.32-1.066-1.32-.388 0-.702.336-1.574 1.679-5.34 8.276-13.442 14.955-22.657 18.705-.908.37-1.768.787-1.913.926-.388.347-.376.95.036 1.343.254.243.388.29.811.243.654-.081 3.645-1.343 5.837-2.465l1.695-.88 1.03.29a25.776 25.776 0 0013.683.01c8.126-2.233 14.556-8.438 16.82-16.262 1.005-3.438 1.163-10.58.364-15.557-.206-1.25-.594-1.84-1.502-2.304-1.211-.613-6.757 0-10.826 1.192-3.705 1.089-8.004 3.23-10.814 5.394-.447.348-.835.626-.871.626-.049 0-.073-.15-.073-.336 0-.544-.351-2.142-.678-3.102-1.223-3.612-4.178-7.13-7.266-8.67-.92-.463-1.538-.498-2.313-.162zm2.761 2.87c3.355 2.559 5.268 6.112 5.474 10.21l.048.972-.98.996c-1.115 1.122-2.326 2.535-2.968 3.46l-.435.626-.146-1.956c-.145-2.154-.387-3.855-.835-6.066-.436-2.13-.545-2.315-1.417-2.315-.4 0-.811.301-.957.695-.036.104.085.937.279 1.852.654 3.171.872 5.22.884 8.392v2.893l-.618 1.331c-.339.73-.738 1.667-.896 2.072l-.278.741-.352-.393c-1.138-1.297-2.458-3.589-3.16-5.533-.812-2.211-.969-3.23-.981-6.03 0-2.721.097-3.37.811-5.615.727-2.292 2.446-5.22 4.008-6.806l.655-.683.496.243c.266.127.884.544 1.368.915z" fill="#000"/></svg>